<?xml version="1.0" encoding="UTF-8" standalone="no"?>
<svg
   xmlns:dc="http://purl.org/dc/elements/1.1/"
   xmlns:cc="http://creativecommons.org/ns#"
   xmlns:rdf="http://www.w3.org/1999/02/22-rdf-syntax-ns#"
   xmlns:svg="http://www.w3.org/2000/svg"
   xmlns="http://www.w3.org/2000/svg"
   xmlns:sodipodi="http://sodipodi.sourceforge.net/DTD/sodipodi-0.dtd"
   xmlns:inkscape="http://www.inkscape.org/namespaces/inkscape"
   width="20px"
   height="20px"
   viewBox="0 0 20 20"
   version="1.1"
   id="svg4495"
   sodipodi:docname="linkedin.svg"
   inkscape:version="0.92.1 r15371">
  <metadata
     id="metadata4499">
    <rdf:RDF>
      <cc:Work
         rdf:about="">
        <dc:format>image/svg+xml</dc:format>
        <dc:type
           rdf:resource="http://purl.org/dc/dcmitype/StillImage" />
        <dc:title>linkedin [#161]</dc:title>
      </cc:Work>
    </rdf:RDF>
  </metadata>
  <sodipodi:namedview
     pagecolor="#ffffff"
     bordercolor="#666666"
     borderopacity="1"
     objecttolerance="10"
     gridtolerance="10"
     guidetolerance="10"
     inkscape:pageopacity="0"
     inkscape:pageshadow="2"
     inkscape:window-width="686"
     inkscape:window-height="433"
     id="namedview4497"
     showgrid="false"
     inkscape:zoom="32.05"
     inkscape:cx="10"
     inkscape:cy="10"
     inkscape:window-x="125"
     inkscape:window-y="125"
     inkscape:window-maximized="0"
     inkscape:current-layer="svg4495" />
  <!-- Generator: Sketch 3.8.1 (29687) - http://www.bohemiancoding.com/sketch -->
  <title
     id="title4485">linkedin [#161]</title>
  <desc
     id="desc4487">Created with Sketch.</desc>
  <defs
     id="defs4489" />
  <g
     id="Page-1"
     stroke="none"
     stroke-width="1"
     fill="none"
     fill-rule="evenodd">
    <g
       id="Dribbble-Dark-Preview"
       transform="translate(-180.000000, -7479.000000)"
       fill="#FFFFFF">
      <g
         id="icons"
         transform="translate(56.000000, 160.000000)">
        <path
           d="M144,7339 L140,7339 L140,7332.001 C140,7330.081 139.153,7329.01 137.634,7329.01 C135.981,7329.01 135,7330.126 135,7332.001 L135,7339 L131,7339 L131,7326 L135,7326 L135,7327.462 C135,7327.462 136.255,7325.26 139.083,7325.26 C141.912,7325.26 144,7326.986 144,7330.558 L144,7339 L144,7339 Z M126.442,7323.921 C125.093,7323.921 124,7322.819 124,7321.46 C124,7320.102 125.093,7319 126.442,7319 C127.79,7319 128.883,7320.102 128.883,7321.46 C128.884,7322.819 127.79,7323.921 126.442,7323.921 L126.442,7323.921 Z M124,7339 L129,7339 L129,7326 L124,7326 L124,7339 Z"
           id="linkedin-[#161]" />
      </g>
    </g>
  </g>
</svg>
